# xmcd
#
# Track frame offsets:
#	150
#	18104
#	29707
#	44639
#	59069
#	74356
#	87452
#	102491
#	115178
#	125433
#	140023
#	153063
#	167280
#	179205
#	196820
#
# Disc length: 2816 seconds
#
# Revision: 1
# Processed by: cddbd v1.5.2PL0 Copyright (c) Steve Scherf et al.
# Submitted via: dBpowerAMP V4.0
#
DISCID=d90afe0f
DTITLE=David Frizzell - The Very Best Of David Frizzell
DYEAR=2009
DGENRE=Country
TTITLE0=I'm Gonna Hire A Wino To Decorate Our Home
TTITLE1=Lefty
TTITLE2=Lone Star Lonesome
TTITLE3=I Wish I Could Hurt That Way Again
TTITLE4=Lost My Baby Blues
TTITLE5=A Million Light Beers Ago
TTITLE6=She Wanted me
TTITLE7=Where Are You Spending Your Nights These Days
TTITLE8=Black And White
TTITLE9=We Won't Be Hearing "Always Late" Anymore
TTITLE10=Forever And Always
TTITLE11=Who Dat (Messin' With That Woman Of Mine)
TTITLE12=When We Get Back To The FArm (That's When We Really Go To Town)
TTITLE13=No Way Jose
TTITLE14=Country Music Love Affair
EXTD=
EXTT0=
EXTT1=
EXTT2=
EXTT3=
EXTT4=
EXTT5=
EXTT6=
EXTT7=
EXTT8=
EXTT9=
EXTT10=
EXTT11=
EXTT12=
EXTT13=
EXTT14=
PLAYORDER=
